<svg xmlns="http://www.w3.org/2000/svg" viewBox="0 0 380 190" fill="currentColor" role="img" aria-label="Kloudbiz"><path fill-rule="evenodd" d="M38.9 41.3L68.4 41.3L68.3 42.4L65 42.4L60.8 44.6L57.9 50.8L57.9 125.8L60.8 131.9L65 134.1L68.3 134.1L68.3 135.4L38.9 135.3L39 134.1L45.5 132.6L49.1 127.3L49.1 49.3L45.5 43.9L38.9 41.5ZM89.6 41.3L118 41.1L118.1 42L111 43.1L104.5 46.9L71.6 85L125.5 141.6L141.8 151.9L151 154.9L160 155.6L160 157.1L151 158.4L139.5 157.1L130.8 154.1L120.8 148.4L104.4 133.5L62.4 88.8L94.6 48L94.4 43.5L89.6 41.5ZM310.1 69.8L346.4 77.8L321.4 75.5L329.8 83.6L301.5 78.6L309.8 87.4L264.4 79.8L298 80.6L291.8 73.9L318.9 78.3L310.3 69.9ZM308.4 97.5L312 97.6L314.6 100.5L314.6 103.8L311.5 106.9L307.8 106.6L305.1 103.5L305.6 99.8L308.3 97.6ZM255.1 98L255.9 143.3L247.5 143.4L247.3 140.9L239.5 143.9L230.3 141.9L225.1 137.5L222.1 131.5L221.6 125.5L223.6 119L228 113.9L234 110.9L241.5 110.6L247.3 112.9L247.4 99.8L255 98.1ZM131.4 99.8L140.4 99.8L140.3 143.4L131.4 143.3L131.4 100ZM263.1 99.8L287.3 99.9L293.3 102.1L296.4 105L298.4 109.3L298.4 113.8L296.6 117.8L293.4 121L298.9 126L299.9 133.3L295.3 140.4L287 143.4L263.1 143.3L263.1 100ZM272.5 107.1L272.5 117.6L284 117.6L289.1 114.5L289.1 110.3L286.3 107.6L272.8 107.1ZM162.9 110.3L168.8 110.9L174.3 113.6L178.6 118.5L180.9 124.8L180.4 132L176.9 138.3L170.3 142.9L164 144.1L157 142.9L152.3 140.1L147.4 133.5L146.1 127.8L147.4 120.8L150.1 116.3L157 111.4L162.8 110.4ZM71.6 110.8L73.8 111.1L75 113.1L77.8 112.9L79.5 115.6L81.5 115.9L82.9 118.3L82.4 120L77.3 123.4L67.8 123.4L65.8 120.9L62.5 120.9L61.6 117L64.8 115.6L66 113.1L69.3 112.9L71.5 110.9ZM185.9 111L194.4 111L194.6 131.8L197.3 135.6L199.8 136.6L204.5 136.1L207.9 133.5L207.9 111L216.6 111L216.5 143.4L208 143.4L207.8 140.9L203.5 143.4L196 143.9L188.9 139.8L185.9 132.5L185.9 111.3ZM305.6 111L314.1 111L314 143.4L305.6 143.3L305.6 111.3ZM319.4 111L346.6 111L346.6 117L330.4 136L346.8 136.1L346.8 143.4L319.1 143.3L319.1 137.5L335.4 118.3L319.5 118.1L319.4 111.3ZM162.8 117.6L156.6 121L154.9 124.5L154.6 128.8L158 134.6L164.5 136.6L170.1 133.8L172.6 126.3L169.8 120.1L163 117.6ZM238.5 117.6L234.3 119.1L231.6 121.8L230.1 128.5L231.9 132.8L235.3 135.6L242 136.4L247.4 133.3L247.4 120.8L243.8 118.4L238.8 117.6ZM272.3 124.6L272.3 135.9L285.5 135.9L288.8 134.6L290.6 132.3L290.6 128.3L288 125.4L272.5 124.6Z"/></svg>
